<svg xmlns="http://www.w3.org/2000/svg" viewBox="0 0 256 256" role="img" aria-label="喵喵便签图标">
  <defs>
    <linearGradient id="bg" x1="32" y1="20" x2="224" y2="236" gradientUnits="userSpaceOnUse">
      <stop offset="0" stop-color="#fff1f0"/>
      <stop offset="0.55" stop-color="#eef8ff"/>
      <stop offset="1" stop-color="#eff9f1"/>
    </linearGradient>
    <linearGradient id="paper" x1="58" y1="84" x2="206" y2="214" gradientUnits="userSpaceOnUse">
      <stop offset="0" stop-color="#fffdf8"/>
      <stop offset="1" stop-color="#f5ead7"/>
    </linearGradient>
    <filter id="shadow" x="-20%" y="-20%" width="140%" height="140%">
      <feDropShadow dx="0" dy="10" stdDeviation="9" flood-color="#5c4632" flood-opacity="0.22"/>
    </filter>
  </defs>
  <rect width="256" height="256" rx="54" fill="url(#bg)"/>
  <g filter="url(#shadow)">
    <rect x="54" y="72" width="148" height="134" rx="18" fill="url(#paper)" stroke="#d7b98e" stroke-width="6"/>
    <path d="M78 100h96M78 127h78M78 154h92M78 181h58" stroke="#b6c6d6" stroke-width="7" stroke-linecap="round"/>
    <path d="M62 90c15 7 28 7 44 0M62 112c15 7 28 7 44 0M62 134c15 7 28 7 44 0" stroke="#d36b4c" stroke-width="7" stroke-linecap="round"/>
  </g>
  <g filter="url(#shadow)">
    <path d="M72 72 91 38l18 35M147 72l22-32 13 40" fill="#f2b27b" stroke="#6a4733" stroke-width="7" stroke-linejoin="round"/>
    <ellipse cx="126" cy="90" rx="62" ry="50" fill="#f2b27b" stroke="#6a4733" stroke-width="7"/>
    <path d="M95 82c6-8 17-8 23 0M139 82c6-8 17-8 23 0" fill="none" stroke="#4b3328" stroke-width="6" stroke-linecap="round"/>
    <path d="M126 95c-7 0-11 4-11 8 0 7 22 7 22 0 0-4-4-8-11-8Z" fill="#d36b4c"/>
    <path d="M126 104v10M109 116c9 9 25 9 34 0" fill="none" stroke="#4b3328" stroke-width="5" stroke-linecap="round"/>
    <path d="M76 96 48 87M76 111 45 112M176 96l30-9M176 111l33 2" stroke="#6a4733" stroke-width="5" stroke-linecap="round"/>
    <path d="M169 148c15 10 28 20 35 37" fill="none" stroke="#6a4733" stroke-width="12" stroke-linecap="round"/>
    <path d="M158 145c17 4 33 18 42 38" fill="none" stroke="#f2b27b" stroke-width="10" stroke-linecap="round"/>
    <path d="M139 145c14 5 25 16 31 31" fill="none" stroke="#6a4733" stroke-width="13" stroke-linecap="round"/>
    <path d="M141 144c11 5 20 15 26 30" fill="none" stroke="#f2b27b" stroke-width="9" stroke-linecap="round"/>
    <path d="M171 160 203 192" stroke="#3f5f88" stroke-width="8" stroke-linecap="round"/>
    <path d="M207 197 218 219l-23-10Z" fill="#f4c56a" stroke="#3f5f88" stroke-width="5" stroke-linejoin="round"/>
  </g>
</svg>
